<svg xmlns="http://www.w3.org/2000/svg" width="24" height="24" viewBox="0 0 24 24">
  <path d="M22.088 13.126L24 12l-1.912-1.126a2.172 2.172 0 0 1-.788-2.942L22.393 6l-2.22-.02a2.171 2.171 0 0 1-2.153-2.153L18 1.608l-1.932 1.093a2.172 2.172 0 0 1-2.941-.788L12 0l-1.127 1.913a2.172 2.172 0 0 1-2.941.788L6 1.608l-.02 2.219A2.171 2.171 0 0 1 3.827 5.98L1.607 6 2.7 7.932a2.172 2.172 0 0 1-.788 2.942L0 12l1.912 1.126a2.172 2.172 0 0 1 .788 2.942L1.607 18l2.22.02a2.171 2.171 0 0 1 2.153 2.153L6 22.392l1.932-1.093a2.172 2.172 0 0 1 2.941.788L12 24l1.127-1.913a2.172 2.172 0 0 1 2.941-.788L18 22.392l.02-2.219a2.173 2.173 0 0 1 2.153-2.153l2.22-.02-1.093-1.932a2.172 2.172 0 0 1 .788-2.942zM11.971 20c-4.411 0-8-3.589-8-8s3.588-8 8-8 8 3.589 8 8-3.589 8-8 8zM12 18a6 6 0 0 1 0-12v12z"/>
</svg>
