<?xml version="1.0" encoding="UTF-8" standalone="no"?>
<svg width="116px" height="121px" viewBox="0 0 116 121" version="1.1" xmlns="http://www.w3.org/2000/svg" xmlns:xlink="http://www.w3.org/1999/xlink">
    <!-- Generator: Sketch 39.1 (31720) - http://www.bohemiancoding.com/sketch -->
    <title>Slice 1</title>
    <desc>Created with Sketch.</desc>
    <defs></defs>
    <g id="Page-1" stroke="none" stroke-width="1" fill="none" fill-rule="evenodd">
        <path d="M57.0714286,113.714286 C57.0714286,112.999996 56.7142893,112.642857 56,112.642857 C53.3660583,112.642857 51.1004559,111.694206 49.203125,109.796875 C47.3057941,107.899544 46.3571429,105.633942 46.3571429,103 C46.3571429,102.285711 46.0000036,101.928571 45.2857143,101.928571 C44.571425,101.928571 44.2142857,102.285711 44.2142857,103 C44.2142857,106.258945 45.3638278,109.037935 47.6629464,111.337054 C49.9620651,113.636172 52.7410551,114.785714 56,114.785714 C56.7142893,114.785714 57.0714286,114.428575 57.0714286,113.714286 L57.0714286,113.714286 Z M12.4732143,94.4285714 L99.5267857,94.4285714 C87.6517263,81.0356473 81.7142857,62.4644045 81.7142857,38.7142857 C81.7142857,36.4374886 81.1785768,34.0937621 80.1071429,31.6830357 C79.0357089,29.2723094 77.4955458,26.9732252 75.4866071,24.7857143 C73.4776685,22.5982033 70.7656421,20.8013463 67.3504464,19.3950893 C63.9352508,17.9888323 60.1518065,17.2857143 56,17.2857143 C51.8481935,17.2857143 48.0647492,17.9888323 44.6495536,19.3950893 C41.2343579,20.8013463 38.5223315,22.5982033 36.5133929,24.7857143 C34.5044542,26.9732252 32.9642911,29.2723094 31.8928571,31.6830357 C30.8214232,34.0937621 30.2857143,36.4374886 30.2857143,38.7142857 C30.2857143,62.4644045 24.3482737,81.0356473 12.4732143,94.4285714 L12.4732143,94.4285714 Z M111.714286,94.4285714 C111.714286,96.7500116 110.86608,98.7589201 109.169643,100.455357 C107.473206,102.151794 105.464297,103 103.142857,103 L73.1428571,103 C73.1428571,107.732167 71.4687667,111.772305 68.1205357,115.120536 C64.7723047,118.468767 60.7321665,120.142857 56,120.142857 C51.2678335,120.142857 47.2276953,118.468767 43.8794643,115.120536 C40.5312333,111.772305 38.8571429,107.732167 38.8571429,103 L8.85714286,103 C6.53570268,103 4.5267942,102.151794 2.83035714,100.455357 C1.13392009,98.7589201 0.285714286,96.7500116 0.285714286,94.4285714 C2.5178683,92.5535621 4.54909799,90.589296 6.37946429,88.5357143 C8.20983058,86.4821326 10.107133,83.8147485 12.0714286,80.5334821 C14.0357241,77.2522157 15.6986539,73.7143047 17.0602679,69.9196429 C18.4218818,66.124981 19.5379421,61.5268127 20.4084821,56.125 C21.2790222,50.7231873 21.7142857,44.9196739 21.7142857,38.7142857 C21.7142857,31.9285375 24.3258667,25.622797 29.5491071,19.796875 C34.7723475,13.970953 41.6249576,10.433042 50.1071429,9.18303571 C49.7499982,8.33481719 49.5714286,7.46429018 49.5714286,6.57142857 C49.5714286,4.78570536 50.1964223,3.26786339 51.4464286,2.01785714 C52.6964348,0.767850893 54.2142768,0.142857143 56,0.142857143 C57.7857232,0.142857143 59.3035652,0.767850893 60.5535714,2.01785714 C61.8035777,3.26786339 62.4285714,4.78570536 62.4285714,6.57142857 C62.4285714,7.46429018 62.2500018,8.33481719 61.8928571,9.18303571 C70.3750424,10.433042 77.2276525,13.970953 82.4508929,19.796875 C87.6741333,25.622797 90.2857143,31.9285375 90.2857143,38.7142857 C90.2857143,44.9196739 90.7209778,50.7231873 91.5915179,56.125 C92.4620579,61.5268127 93.5781182,66.124981 94.9397321,69.9196429 C96.3013461,73.7143047 97.9642759,77.2522157 99.9285714,80.5334821 C101.892867,83.8147485 103.790169,86.4821326 105.620536,88.5357143 C107.450902,90.589296 109.482132,92.5535621 111.714286,94.4285714 L111.714286,94.4285714 Z" id="" fill="#000000"></path>
    </g>
</svg>