<svg viewBox="0 0 116 121" xmlns="http://www.w3.org/2000/svg"><path d="M57.071 113.714c0-.714-.357-1.071-1.071-1.071-2.634 0-4.9-.949-6.797-2.846-1.897-1.897-2.846-4.163-2.846-6.797 0-.714-.357-1.071-1.071-1.071-.715 0-1.072.357-1.072 1.071 0 3.259 1.15 6.038 3.449 8.337 2.3 2.3 5.078 3.449 8.337 3.449.714 0 1.071-.357 1.071-1.072zM12.473 94.43h87.054C87.652 81.036 81.714 62.464 81.714 38.714c0-2.277-.535-4.62-1.607-7.031-1.071-2.41-2.611-4.71-4.62-6.897-2.01-2.188-4.721-3.985-8.137-5.39-3.415-1.407-7.198-2.11-11.35-2.11-4.152 0-7.935.703-11.35 2.11-3.416 1.405-6.128 3.202-8.137 5.39-2.009 2.187-3.549 4.486-4.62 6.897-1.072 2.41-1.607 4.754-1.607 7.031 0 23.75-5.938 42.322-17.813 55.715zm99.241 0c0 2.321-.848 4.33-2.544 6.026-1.697 1.697-3.706 2.545-6.027 2.545h-30c0 4.732-1.674 8.772-5.022 12.12-3.349 3.349-7.389 5.023-12.121 5.023s-8.772-1.674-12.12-5.022c-3.349-3.349-5.023-7.389-5.023-12.121h-30c-2.321 0-4.33-.848-6.027-2.545C1.134 98.76.286 96.75.286 94.43a58.82 58.82 0 0 0 6.093-5.893c1.83-2.054 3.728-4.721 5.692-8.003 1.965-3.28 3.628-6.819 4.99-10.613 1.36-3.795 2.477-8.393 3.347-13.795.871-5.402 1.306-11.205 1.306-17.41 0-6.786 2.612-13.092 7.835-18.918 5.223-5.826 12.076-9.364 20.558-10.614a6.67 6.67 0 0 1-.536-2.612c0-1.785.625-3.303 1.875-4.553S54.214.143 56 .143c1.786 0 3.304.625 4.554 1.875 1.25 1.25 1.875 2.768 1.875 4.553a6.67 6.67 0 0 1-.536 2.612c8.482 1.25 15.335 4.788 20.558 10.614 5.223 5.826 7.835 12.132 7.835 18.917 0 6.206.435 12.01 1.306 17.411.87 5.402 1.986 10 3.348 13.795 1.361 3.794 3.024 7.332 4.989 10.613 1.964 3.282 3.861 5.95 5.692 8.003a58.82 58.82 0 0 0 6.093 5.893z" fill-rule="evenodd"/></svg>