<svg viewBox="0 0 138 121" xmlns="http://www.w3.org/2000/svg"><path d="M69.643 113.714c0-.714-.357-1.071-1.072-1.071-2.634 0-4.9-.949-6.796-2.846-1.898-1.897-2.846-4.163-2.846-6.797 0-.714-.358-1.071-1.072-1.071-.714 0-1.071.357-1.071 1.071 0 3.259 1.15 6.038 3.448 8.337 2.3 2.3 5.078 3.449 8.337 3.449.715 0 1.072-.357 1.072-1.072zm-35.96-31.808l58.728-50.893c-1.875-3.928-4.833-7.198-8.873-9.81-4.04-2.611-9.029-3.917-14.967-3.917-4.151 0-7.935.703-11.35 2.11-3.415 1.405-6.127 3.202-8.136 5.39-2.01 2.187-3.55 4.486-4.62 6.897-1.072 2.41-1.608 4.754-1.608 7.031 0 17.143-3.058 31.54-9.174 43.192zm90.603 12.523c0 2.321-.848 4.33-2.545 6.026-1.696 1.697-3.705 2.545-6.027 2.545h-30c0 4.732-1.674 8.772-5.022 12.12-3.348 3.349-7.388 5.023-12.12 5.023-4.733 0-8.762-1.663-12.088-4.989-3.326-3.326-5.01-7.355-5.055-12.087l9.977-8.638h50.692c-7.41-8.349-12.477-18.594-15.2-30.737l7.432-6.496c2.724 15.893 9.375 28.304 19.956 37.233zm5.759-93.215l5.625 6.429c.357.446.524.97.502 1.574a2.052 2.052 0 0 1-.703 1.506L10.112 119.34c-.447.357-.971.514-1.574.469-.603-.045-1.083-.29-1.44-.737l-5.625-6.428c-.357-.447-.524-.971-.502-1.574.022-.602.257-1.082.703-1.44L14.13 98.85c-.848-1.43-1.272-2.903-1.272-4.42a58.82 58.82 0 0 0 6.094-5.893c1.83-2.054 3.728-4.721 5.692-8.003 1.964-3.28 3.627-6.819 4.989-10.613 1.361-3.795 2.477-8.393 3.348-13.795.87-5.402 1.306-11.205 1.306-17.41 0-6.786 2.611-13.092 7.835-18.918 5.223-5.826 12.075-9.364 20.558-10.614a6.67 6.67 0 0 1-.536-2.612c0-1.785.625-3.303 1.875-4.553S66.786.143 68.57.143c1.786 0 3.304.625 4.554 1.875C74.375 3.268 75 4.786 75 6.57a6.67 6.67 0 0 1-.536 2.612c5.536.804 10.424 2.645 14.665 5.525 4.242 2.88 7.545 6.395 9.911 10.546L127.031.946c.447-.357.971-.513 1.574-.468.603.044 1.082.29 1.44.736z" fill-rule="evenodd"/></svg>