<?xml version="1.0" encoding="UTF-8" standalone="no"?>
<svg width="138px" height="121px" viewBox="0 0 138 121" version="1.1" xmlns="http://www.w3.org/2000/svg" xmlns:xlink="http://www.w3.org/1999/xlink">
    <!-- Generator: Sketch 39.1 (31720) - http://www.bohemiancoding.com/sketch -->
    <title>Slice 1</title>
    <desc>Created with Sketch.</desc>
    <defs></defs>
    <g id="Page-1" stroke="none" stroke-width="1" fill="none" fill-rule="evenodd">
        <path d="M69.6428571,113.714286 C69.6428571,112.999996 69.2857179,112.642857 68.5714286,112.642857 C65.9374868,112.642857 63.6718845,111.694206 61.7745536,109.796875 C59.8772227,107.899544 58.9285714,105.633942 58.9285714,103 C58.9285714,102.285711 58.5714321,101.928571 57.8571429,101.928571 C57.1428536,101.928571 56.7857143,102.285711 56.7857143,103 C56.7857143,106.258945 57.9352564,109.037935 60.234375,111.337054 C62.5334936,113.636172 65.3124837,114.785714 68.5714286,114.785714 C69.2857179,114.785714 69.6428571,114.428575 69.6428571,113.714286 L69.6428571,113.714286 Z M33.6830357,81.90625 L92.4107143,31.0133929 C90.5357049,27.0848018 87.5781452,23.8147452 83.5379464,21.203125 C79.4977477,18.5915048 74.5089583,17.2857143 68.5714286,17.2857143 C64.4196221,17.2857143 60.6361778,17.9888323 57.2209821,19.3950893 C53.8057865,20.8013463 51.09376,22.5982033 49.0848214,24.7857143 C47.0758828,26.9732252 45.5357196,29.2723094 44.4642857,31.6830357 C43.3928518,34.0937621 42.8571429,36.4374886 42.8571429,38.7142857 C42.8571429,55.8572286 39.7991377,70.254406 33.6830357,81.90625 L33.6830357,81.90625 Z M124.285714,94.4285714 C124.285714,96.7500116 123.437508,98.7589201 121.741071,100.455357 C120.044634,102.151794 118.035726,103 115.714286,103 L85.7142857,103 C85.7142857,107.732167 84.0401953,111.772305 80.6919643,115.120536 C77.3437333,118.468767 73.3035951,120.142857 68.5714286,120.142857 C63.8392621,120.142857 59.8102845,118.479927 56.484375,115.154018 C53.1584655,111.828108 51.4732145,107.799131 51.4285714,103.066964 L61.40625,94.4285714 L112.098214,94.4285714 C104.687463,86.0803154 99.6205493,75.8348821 96.8973214,63.6919643 L104.330357,57.1964286 C107.053585,73.0893652 113.705304,85.4999554 124.285714,94.4285714 L124.285714,94.4285714 Z M130.044643,1.21428571 L135.669643,7.64285714 C136.026788,8.08928795 136.194197,8.61383627 136.171875,9.21651786 C136.149553,9.81919944 135.915181,10.3214266 135.46875,10.7232143 L10.1116071,119.339286 C9.66517634,119.69643 9.14062801,119.852679 8.53794643,119.808036 C7.93526484,119.763393 7.45535893,119.517859 7.09821429,119.071429 L1.47321429,112.642857 C1.11606964,112.196426 0.948660603,111.671878 0.970982143,111.069196 C0.993303683,110.466515 1.22767634,109.986609 1.67410714,109.629464 L14.1294643,98.8482143 C13.2812458,97.4196357 12.8571429,95.9464362 12.8571429,94.4285714 C15.0892969,92.5535621 17.1205266,90.589296 18.9508929,88.5357143 C20.7812592,86.4821326 22.6785616,83.8147485 24.6428571,80.5334821 C26.6071527,77.2522157 28.2700825,73.7143047 29.6316964,69.9196429 C30.9933104,66.124981 32.1093706,61.5268127 32.9799107,56.125 C33.8504508,50.7231873 34.2857143,44.9196739 34.2857143,38.7142857 C34.2857143,31.9285375 36.8972953,25.622797 42.1205357,19.796875 C47.3437761,13.970953 54.1963862,10.433042 62.6785714,9.18303571 C62.3214268,8.33481719 62.1428571,7.46429018 62.1428571,6.57142857 C62.1428571,4.78570536 62.7678509,3.26786339 64.0178571,2.01785714 C65.2678634,0.767850893 66.7857054,0.142857143 68.5714286,0.142857143 C70.3571518,0.142857143 71.8749938,0.767850893 73.125,2.01785714 C74.3750062,3.26786339 75,4.78570536 75,6.57142857 C75,7.46429018 74.8214304,8.33481719 74.4642857,9.18303571 C80.0000277,9.98661116 84.8883717,11.8281106 89.1294643,14.7075893 C93.3705569,17.587068 96.6740953,21.1026578 99.0401786,25.2544643 L127.03125,0.946428571 C127.477681,0.589283929 128.002229,0.433035491 128.604911,0.477678571 C129.207592,0.522321652 129.687498,0.767854911 130.044643,1.21428571 L130.044643,1.21428571 Z" id="" fill="#000000"></path>
    </g>
</svg>